<mxfile host="app.diagrams.net" modified="2024-03-18T17:40:54.789Z" agent="Mozilla/5.0 (Windows NT 10.0; Win64; x64) AppleWebKit/537.36 (KHTML, like Gecko) Chrome/122.0.0.0 Safari/537.36" etag="b8k44gjfzWOh6agSlyzR" version="24.0.7" type="device">
  <diagram name="Page-1" id="40y-sBEBGxoeXlOKV-9W">
    <mxGraphModel dx="1050" dy="522" grid="1" gridSize="10" guides="1" tooltips="1" connect="1" arrows="1" fold="1" page="1" pageScale="1" pageWidth="850" pageHeight="1100" math="0" shadow="0">
      <root>
        <mxCell id="0" />
        <mxCell id="1" parent="0" />
        <mxCell id="yD1fylSUYDZ-E6dpYWgj-3" style="edgeStyle=orthogonalEdgeStyle;rounded=0;orthogonalLoop=1;jettySize=auto;html=1;exitX=1;exitY=0.5;exitDx=0;exitDy=0;entryX=0;entryY=0.5;entryDx=0;entryDy=0;" edge="1" parent="1" source="yD1fylSUYDZ-E6dpYWgj-1" target="yD1fylSUYDZ-E6dpYWgj-2">
          <mxGeometry relative="1" as="geometry" />
        </mxCell>
        <mxCell id="yD1fylSUYDZ-E6dpYWgj-1" value="HEAD" style="rounded=1;whiteSpace=wrap;html=1;" vertex="1" parent="1">
          <mxGeometry x="180" y="120" width="120" height="60" as="geometry" />
        </mxCell>
        <mxCell id="yD1fylSUYDZ-E6dpYWgj-2" value="NEXT" style="rounded=1;whiteSpace=wrap;html=1;" vertex="1" parent="1">
          <mxGeometry x="390" y="120" width="120" height="60" as="geometry" />
        </mxCell>
        <mxCell id="yD1fylSUYDZ-E6dpYWgj-4" value="" style="shape=flexArrow;endArrow=classic;html=1;rounded=0;" edge="1" parent="1">
          <mxGeometry width="50" height="50" relative="1" as="geometry">
            <mxPoint x="110" y="240" as="sourcePoint" />
            <mxPoint x="110" y="180" as="targetPoint" />
          </mxGeometry>
        </mxCell>
        <mxCell id="yD1fylSUYDZ-E6dpYWgj-5" value="PREV" style="text;html=1;align=center;verticalAlign=middle;whiteSpace=wrap;rounded=0;" vertex="1" parent="1">
          <mxGeometry x="80" y="240" width="60" height="30" as="geometry" />
        </mxCell>
        <mxCell id="yD1fylSUYDZ-E6dpYWgj-6" value="NULL" style="text;html=1;align=center;verticalAlign=middle;whiteSpace=wrap;rounded=0;" vertex="1" parent="1">
          <mxGeometry x="80" y="135" width="60" height="30" as="geometry" />
        </mxCell>
        <mxCell id="yD1fylSUYDZ-E6dpYWgj-7" value="" style="shape=flexArrow;endArrow=classic;html=1;rounded=0;" edge="1" parent="1">
          <mxGeometry width="50" height="50" relative="1" as="geometry">
            <mxPoint x="239.5" y="240" as="sourcePoint" />
            <mxPoint x="239.5" y="180" as="targetPoint" />
          </mxGeometry>
        </mxCell>
        <mxCell id="yD1fylSUYDZ-E6dpYWgj-8" value="CURRENT" style="edgeLabel;html=1;align=center;verticalAlign=middle;resizable=0;points=[];" vertex="1" connectable="0" parent="yD1fylSUYDZ-E6dpYWgj-7">
          <mxGeometry x="-0.56" y="-2" relative="1" as="geometry">
            <mxPoint x="-1" y="23" as="offset" />
          </mxGeometry>
        </mxCell>
        <mxCell id="yD1fylSUYDZ-E6dpYWgj-9" style="edgeStyle=orthogonalEdgeStyle;rounded=0;orthogonalLoop=1;jettySize=auto;html=1;exitX=1;exitY=0.5;exitDx=0;exitDy=0;entryX=0;entryY=0.5;entryDx=0;entryDy=0;" edge="1" parent="1" source="yD1fylSUYDZ-E6dpYWgj-10" target="yD1fylSUYDZ-E6dpYWgj-11">
          <mxGeometry relative="1" as="geometry" />
        </mxCell>
        <mxCell id="yD1fylSUYDZ-E6dpYWgj-10" value="Dummy HEAD" style="rounded=1;whiteSpace=wrap;html=1;" vertex="1" parent="1">
          <mxGeometry x="180" y="350" width="120" height="60" as="geometry" />
        </mxCell>
        <mxCell id="yD1fylSUYDZ-E6dpYWgj-20" value="" style="edgeStyle=orthogonalEdgeStyle;rounded=0;orthogonalLoop=1;jettySize=auto;html=1;" edge="1" parent="1" source="yD1fylSUYDZ-E6dpYWgj-11" target="yD1fylSUYDZ-E6dpYWgj-19">
          <mxGeometry relative="1" as="geometry" />
        </mxCell>
        <mxCell id="yD1fylSUYDZ-E6dpYWgj-11" value="HEAD" style="rounded=1;whiteSpace=wrap;html=1;" vertex="1" parent="1">
          <mxGeometry x="390" y="350" width="120" height="60" as="geometry" />
        </mxCell>
        <mxCell id="yD1fylSUYDZ-E6dpYWgj-12" value="" style="shape=flexArrow;endArrow=classic;html=1;rounded=0;" edge="1" parent="1">
          <mxGeometry width="50" height="50" relative="1" as="geometry">
            <mxPoint x="449.5" y="470" as="sourcePoint" />
            <mxPoint x="449.5" y="410" as="targetPoint" />
          </mxGeometry>
        </mxCell>
        <mxCell id="yD1fylSUYDZ-E6dpYWgj-21" value="NEXT" style="edgeLabel;html=1;align=center;verticalAlign=middle;resizable=0;points=[];" vertex="1" connectable="0" parent="yD1fylSUYDZ-E6dpYWgj-12">
          <mxGeometry x="-0.3933" y="2" relative="1" as="geometry">
            <mxPoint x="3" y="28" as="offset" />
          </mxGeometry>
        </mxCell>
        <mxCell id="yD1fylSUYDZ-E6dpYWgj-15" value="" style="shape=flexArrow;endArrow=classic;html=1;rounded=0;" edge="1" parent="1">
          <mxGeometry width="50" height="50" relative="1" as="geometry">
            <mxPoint x="239.5" y="470" as="sourcePoint" />
            <mxPoint x="239.5" y="410" as="targetPoint" />
          </mxGeometry>
        </mxCell>
        <mxCell id="yD1fylSUYDZ-E6dpYWgj-16" value="CURRENT" style="edgeLabel;html=1;align=center;verticalAlign=middle;resizable=0;points=[];" vertex="1" connectable="0" parent="yD1fylSUYDZ-E6dpYWgj-15">
          <mxGeometry x="-0.56" y="-2" relative="1" as="geometry">
            <mxPoint x="-1" y="23" as="offset" />
          </mxGeometry>
        </mxCell>
        <mxCell id="yD1fylSUYDZ-E6dpYWgj-19" value="NEXT" style="whiteSpace=wrap;html=1;rounded=1;" vertex="1" parent="1">
          <mxGeometry x="590" y="350" width="120" height="60" as="geometry" />
        </mxCell>
      </root>
    </mxGraphModel>
  </diagram>
</mxfile>
